<svg viewBox="0 0 24 24" xmlns="http://www.w3.org/2000/svg">
  <defs>
    <!-- Japanese paper gradient -->
    <radialGradient id="paperGradient" cx="30%" cy="30%" r="80%">
      <stop offset="0%" style="stop-color:#fdfbf7;stop-opacity:1" />
      <stop offset="40%" style="stop-color:#f8f5ed;stop-opacity:1" />
      <stop offset="100%" style="stop-color:#f3ede3;stop-opacity:1" />
    </radialGradient>
  </defs>
  
  <!-- Paper background -->
  <rect x="0" y="0" width="24" height="24" fill="url(#paperGradient)" />
  
  <!-- Box-0 outline -->
  <path d="M 3.3,3.8 C 3.1,3.3 3.4,2.9 3.9,2.8 L 20.2,3.1 C 20.7,3.2 21.1,3.5 21.2,4 L 20.9,20.3 C 20.8,20.8 20.5,21.1 20,21.2 L 3.7,20.9 C 3.2,20.8 2.9,20.5 2.8,20 L 3.1,3.7 Z" 
        fill="none" 
        stroke="#1a2332" 
        stroke-width="1.4" 
        stroke-linecap="round" 
        stroke-linejoin="round" 
        opacity="0.85"/>
  
  <!-- Ink blot variation 0 -->
  <g style="fill: #1a2332; opacity: 0.71;">
    <path d="M 4.5,6.1 C 6.2,5.4 8.9,5.6 11.8,5.9 C 14.1,6.3 16.8,6.9 18.9,7.6 C 20.2,8.7 20.8,10.1 20.4,12.3 C 19.9,14.5 19.1,16.8 17.8,18.5 C 16.2,19.4 13.7,20.2 11.0,19.9 C 8.4,19.6 6.0,18.7 4.5,17.4 C 3.6,15.7 3.3,13.4 3.9,11.0 C 4.1,9.1 4.3,7.4 4.5,6.1 Z" />
  </g>
</svg>